<mxfile>
    <diagram id="M5mVOkQdbHH7DifxaM2m" name="第 1 页">
        <mxGraphModel dx="700" dy="567" grid="0" gridSize="10" guides="1" tooltips="1" connect="1" arrows="1" fold="1" page="1" pageScale="1" pageWidth="1654" pageHeight="2336" math="0" shadow="0">
            <root>
                <mxCell id="0"/>
                <mxCell id="1" parent="0"/>
                <mxCell id="31" value="" style="group" vertex="1" connectable="0" parent="1">
                    <mxGeometry x="24" y="6" width="585" height="300" as="geometry"/>
                </mxCell>
                <mxCell id="2" value="" style="rounded=1;whiteSpace=wrap;html=1;fillColor=#f5f5f5;fontColor=#333333;strokeColor=none;" vertex="1" parent="31">
                    <mxGeometry x="165" width="420" height="300" as="geometry"/>
                </mxCell>
                <mxCell id="3" value="client" style="ellipse;whiteSpace=wrap;html=1;fillColor=#ffe6cc;strokeColor=none;" vertex="1" parent="31">
                    <mxGeometry y="133" width="90" height="60" as="geometry"/>
                </mxCell>
                <mxCell id="4" value="server" style="text;html=1;strokeColor=none;fillColor=none;align=center;verticalAlign=middle;whiteSpace=wrap;rounded=0;" vertex="1" parent="31">
                    <mxGeometry x="355" y="10" width="40" height="20" as="geometry"/>
                </mxCell>
                <mxCell id="5" value="" style="rounded=1;whiteSpace=wrap;html=1;fillColor=#cce5ff;strokeColor=none;" vertex="1" parent="31">
                    <mxGeometry x="175" y="40" width="400" height="240" as="geometry"/>
                </mxCell>
                <mxCell id="6" value="进程" style="text;html=1;strokeColor=none;fillColor=none;align=center;verticalAlign=middle;whiteSpace=wrap;rounded=0;" vertex="1" parent="31">
                    <mxGeometry x="195" y="60" width="40" height="20" as="geometry"/>
                </mxCell>
                <mxCell id="8" value="" style="rounded=1;whiteSpace=wrap;html=1;fillColor=#E6FFCC;strokeColor=none;" vertex="1" parent="31">
                    <mxGeometry x="205" y="200" width="105" height="60" as="geometry"/>
                </mxCell>
                <mxCell id="9" value="" style="rounded=1;whiteSpace=wrap;html=1;fillColor=#E6FFCC;strokeColor=none;" vertex="1" parent="31">
                    <mxGeometry x="345" y="200" width="210" height="60" as="geometry"/>
                </mxCell>
                <mxCell id="10" value="" style="rounded=1;whiteSpace=wrap;html=1;fillColor=#E6FFCC;strokeColor=none;" vertex="1" parent="31">
                    <mxGeometry x="303" y="80" width="150" height="70" as="geometry"/>
                </mxCell>
                <mxCell id="11" value="Reactor" style="text;html=1;strokeColor=none;fillColor=none;align=center;verticalAlign=middle;whiteSpace=wrap;rounded=0;" vertex="1" parent="31">
                    <mxGeometry x="348" y="60" width="40" height="20" as="geometry"/>
                </mxCell>
                <mxCell id="12" value="Acceptor" style="text;html=1;strokeColor=none;fillColor=none;align=center;verticalAlign=middle;whiteSpace=wrap;rounded=0;" vertex="1" parent="31">
                    <mxGeometry x="225" y="180" width="40" height="20" as="geometry"/>
                </mxCell>
                <mxCell id="13" value="Handler" style="text;html=1;strokeColor=none;fillColor=none;align=center;verticalAlign=middle;whiteSpace=wrap;rounded=0;" vertex="1" parent="31">
                    <mxGeometry x="453" y="180" width="40" height="20" as="geometry"/>
                </mxCell>
                <mxCell id="14" value="select" style="rounded=0;whiteSpace=wrap;html=1;fillColor=#ffcc99;strokeColor=none;" vertex="1" parent="31">
                    <mxGeometry x="323" y="105" width="50" height="20" as="geometry"/>
                </mxCell>
                <mxCell id="16" value="dispatch" style="rounded=0;whiteSpace=wrap;html=1;fillColor=#ffcc99;strokeColor=none;" vertex="1" parent="31">
                    <mxGeometry x="393" y="105" width="50" height="20" as="geometry"/>
                </mxCell>
                <mxCell id="17" value="accept" style="rounded=0;whiteSpace=wrap;html=1;fillColor=#ffcc99;strokeColor=none;" vertex="1" parent="31">
                    <mxGeometry x="232.5" y="220" width="50" height="20" as="geometry"/>
                </mxCell>
                <mxCell id="18" value="read" style="rounded=0;whiteSpace=wrap;html=1;fillColor=#ffcc99;strokeColor=none;" vertex="1" parent="31">
                    <mxGeometry x="360" y="225" width="50" height="20" as="geometry"/>
                </mxCell>
                <mxCell id="19" value="处理" style="rounded=0;whiteSpace=wrap;html=1;fillColor=#ffcc99;strokeColor=none;" vertex="1" parent="31">
                    <mxGeometry x="425" y="225" width="50" height="20" as="geometry"/>
                </mxCell>
                <mxCell id="21" style="edgeStyle=orthogonalEdgeStyle;rounded=0;orthogonalLoop=1;jettySize=auto;html=1;exitX=1;exitY=0.5;exitDx=0;exitDy=0;entryX=0;entryY=0.5;entryDx=0;entryDy=0;" edge="1" parent="31" source="18" target="19">
                    <mxGeometry relative="1" as="geometry"/>
                </mxCell>
                <mxCell id="20" value="send" style="rounded=0;whiteSpace=wrap;html=1;fillColor=#ffcc99;strokeColor=none;" vertex="1" parent="31">
                    <mxGeometry x="495" y="225" width="50" height="20" as="geometry"/>
                </mxCell>
                <mxCell id="22" style="edgeStyle=orthogonalEdgeStyle;rounded=0;orthogonalLoop=1;jettySize=auto;html=1;exitX=1;exitY=0.5;exitDx=0;exitDy=0;entryX=0;entryY=0.5;entryDx=0;entryDy=0;" edge="1" parent="31" source="19" target="20">
                    <mxGeometry relative="1" as="geometry"/>
                </mxCell>
                <mxCell id="23" value="" style="endArrow=classic;html=1;strokeColor=#808080;" edge="1" parent="31">
                    <mxGeometry width="50" height="50" relative="1" as="geometry">
                        <mxPoint x="96" y="150" as="sourcePoint"/>
                        <mxPoint x="292.5" y="110" as="targetPoint"/>
                    </mxGeometry>
                </mxCell>
                <mxCell id="26" value="请求" style="edgeLabel;html=1;align=center;verticalAlign=middle;resizable=0;points=[];labelBackgroundColor=none;" vertex="1" connectable="0" parent="23">
                    <mxGeometry x="-0.0317" y="2" relative="1" as="geometry">
                        <mxPoint as="offset"/>
                    </mxGeometry>
                </mxCell>
                <mxCell id="27" value="" style="endArrow=classic;html=1;strokeColor=#808080;" edge="1" parent="31">
                    <mxGeometry width="50" height="50" relative="1" as="geometry">
                        <mxPoint x="340" y="150" as="sourcePoint"/>
                        <mxPoint x="310" y="200" as="targetPoint"/>
                    </mxGeometry>
                </mxCell>
                <mxCell id="28" value="建立连接" style="edgeLabel;html=1;align=center;verticalAlign=middle;resizable=0;points=[];labelBackgroundColor=none;" vertex="1" connectable="0" parent="27">
                    <mxGeometry x="-0.0317" y="2" relative="1" as="geometry">
                        <mxPoint as="offset"/>
                    </mxGeometry>
                </mxCell>
                <mxCell id="29" value="" style="endArrow=classic;html=1;strokeColor=#808080;" edge="1" parent="31">
                    <mxGeometry width="50" height="50" relative="1" as="geometry">
                        <mxPoint x="388" y="150" as="sourcePoint"/>
                        <mxPoint x="418" y="200" as="targetPoint"/>
                    </mxGeometry>
                </mxCell>
                <mxCell id="30" value="处理请求" style="edgeLabel;html=1;align=center;verticalAlign=middle;resizable=0;points=[];labelBackgroundColor=none;" vertex="1" connectable="0" parent="29">
                    <mxGeometry x="-0.0317" y="2" relative="1" as="geometry">
                        <mxPoint as="offset"/>
                    </mxGeometry>
                </mxCell>
                <mxCell id="90" value="" style="group" vertex="1" connectable="0" parent="1">
                    <mxGeometry x="55" y="395" width="594" height="512" as="geometry"/>
                </mxCell>
                <mxCell id="33" value="" style="rounded=1;whiteSpace=wrap;html=1;fillColor=#f5f5f5;fontColor=#333333;strokeColor=none;" vertex="1" parent="90">
                    <mxGeometry x="154" width="440" height="512" as="geometry"/>
                </mxCell>
                <mxCell id="34" value="client1" style="ellipse;whiteSpace=wrap;html=1;fillColor=#ffe6cc;strokeColor=none;" vertex="1" parent="90">
                    <mxGeometry y="122" width="90" height="60" as="geometry"/>
                </mxCell>
                <mxCell id="35" value="server" style="text;html=1;strokeColor=none;fillColor=none;align=center;verticalAlign=middle;whiteSpace=wrap;rounded=0;" vertex="1" parent="90">
                    <mxGeometry x="355" y="10" width="40" height="20" as="geometry"/>
                </mxCell>
                <mxCell id="36" value="" style="rounded=1;whiteSpace=wrap;html=1;fillColor=#cce5ff;strokeColor=none;" vertex="1" parent="90">
                    <mxGeometry x="175" y="40" width="400" height="240" as="geometry"/>
                </mxCell>
                <mxCell id="37" value="主线程" style="text;html=1;strokeColor=none;fillColor=none;align=center;verticalAlign=middle;whiteSpace=wrap;rounded=0;" vertex="1" parent="90">
                    <mxGeometry x="195" y="60" width="40" height="20" as="geometry"/>
                </mxCell>
                <mxCell id="38" value="" style="rounded=1;whiteSpace=wrap;html=1;fillColor=#E6FFCC;strokeColor=none;" vertex="1" parent="90">
                    <mxGeometry x="205" y="200" width="105" height="60" as="geometry"/>
                </mxCell>
                <mxCell id="39" value="" style="rounded=1;whiteSpace=wrap;html=1;fillColor=#E6FFCC;strokeColor=none;" vertex="1" parent="90">
                    <mxGeometry x="345" y="200" width="87" height="60" as="geometry"/>
                </mxCell>
                <mxCell id="40" value="" style="rounded=1;whiteSpace=wrap;html=1;fillColor=#E6FFCC;strokeColor=none;" vertex="1" parent="90">
                    <mxGeometry x="303" y="80" width="150" height="70" as="geometry"/>
                </mxCell>
                <mxCell id="41" value="Reactor" style="text;html=1;strokeColor=none;fillColor=none;align=center;verticalAlign=middle;whiteSpace=wrap;rounded=0;" vertex="1" parent="90">
                    <mxGeometry x="348" y="60" width="40" height="20" as="geometry"/>
                </mxCell>
                <mxCell id="42" value="Acceptor" style="text;html=1;strokeColor=none;fillColor=none;align=center;verticalAlign=middle;whiteSpace=wrap;rounded=0;" vertex="1" parent="90">
                    <mxGeometry x="225" y="180" width="40" height="20" as="geometry"/>
                </mxCell>
                <mxCell id="43" value="Handler1" style="text;html=1;strokeColor=none;fillColor=none;align=center;verticalAlign=middle;whiteSpace=wrap;rounded=0;" vertex="1" parent="90">
                    <mxGeometry x="351" y="182" width="40" height="20" as="geometry"/>
                </mxCell>
                <mxCell id="44" value="select" style="rounded=0;whiteSpace=wrap;html=1;fillColor=#ffcc99;strokeColor=none;" vertex="1" parent="90">
                    <mxGeometry x="323" y="105" width="50" height="20" as="geometry"/>
                </mxCell>
                <mxCell id="45" value="dispatch" style="rounded=0;whiteSpace=wrap;html=1;fillColor=#ffcc99;strokeColor=none;" vertex="1" parent="90">
                    <mxGeometry x="393" y="105" width="50" height="20" as="geometry"/>
                </mxCell>
                <mxCell id="46" value="accept" style="rounded=0;whiteSpace=wrap;html=1;fillColor=#ffcc99;strokeColor=none;" vertex="1" parent="90">
                    <mxGeometry x="232.5" y="220" width="50" height="20" as="geometry"/>
                </mxCell>
                <mxCell id="47" value="read" style="rounded=0;whiteSpace=wrap;html=1;fillColor=#ffcc99;strokeColor=none;" vertex="1" parent="90">
                    <mxGeometry x="363.5" y="207" width="50" height="20" as="geometry"/>
                </mxCell>
                <mxCell id="50" value="send" style="rounded=0;whiteSpace=wrap;html=1;fillColor=#ffcc99;strokeColor=none;" vertex="1" parent="90">
                    <mxGeometry x="363.5" y="234" width="50" height="20" as="geometry"/>
                </mxCell>
                <mxCell id="52" value="" style="endArrow=classic;html=1;strokeColor=#808080;" edge="1" parent="90">
                    <mxGeometry width="50" height="50" as="geometry">
                        <mxPoint x="96" y="150" as="sourcePoint"/>
                        <mxPoint x="292.5" y="110" as="targetPoint"/>
                    </mxGeometry>
                </mxCell>
                <mxCell id="53" value="请求" style="edgeLabel;html=1;align=center;verticalAlign=middle;resizable=0;points=[];labelBackgroundColor=none;" vertex="1" connectable="0" parent="52">
                    <mxGeometry x="-0.0317" y="2" relative="1" as="geometry">
                        <mxPoint as="offset"/>
                    </mxGeometry>
                </mxCell>
                <mxCell id="54" value="" style="endArrow=classic;html=1;strokeColor=#808080;" edge="1" parent="90">
                    <mxGeometry width="50" height="50" as="geometry">
                        <mxPoint x="340" y="150" as="sourcePoint"/>
                        <mxPoint x="310" y="200" as="targetPoint"/>
                    </mxGeometry>
                </mxCell>
                <mxCell id="55" value="建立连接" style="edgeLabel;html=1;align=center;verticalAlign=middle;resizable=0;points=[];labelBackgroundColor=none;" vertex="1" connectable="0" parent="54">
                    <mxGeometry x="-0.0317" y="2" relative="1" as="geometry">
                        <mxPoint as="offset"/>
                    </mxGeometry>
                </mxCell>
                <mxCell id="56" value="" style="endArrow=classic;html=1;strokeColor=#808080;" edge="1" parent="90">
                    <mxGeometry width="50" height="50" as="geometry">
                        <mxPoint x="388" y="150" as="sourcePoint"/>
                        <mxPoint x="418" y="200" as="targetPoint"/>
                    </mxGeometry>
                </mxCell>
                <mxCell id="57" value="处理请求" style="edgeLabel;html=1;align=center;verticalAlign=middle;resizable=0;points=[];labelBackgroundColor=none;" vertex="1" connectable="0" parent="56">
                    <mxGeometry x="-0.0317" y="2" relative="1" as="geometry">
                        <mxPoint as="offset"/>
                    </mxGeometry>
                </mxCell>
                <mxCell id="58" value="" style="rounded=1;whiteSpace=wrap;html=1;fillColor=#E6FFCC;strokeColor=none;" vertex="1" parent="90">
                    <mxGeometry x="453" y="200" width="89" height="59" as="geometry"/>
                </mxCell>
                <mxCell id="60" value="read" style="rounded=0;whiteSpace=wrap;html=1;fillColor=#ffcc99;strokeColor=none;" vertex="1" parent="90">
                    <mxGeometry x="471" y="207" width="50" height="20" as="geometry"/>
                </mxCell>
                <mxCell id="61" value="send" style="rounded=0;whiteSpace=wrap;html=1;fillColor=#ffcc99;strokeColor=none;" vertex="1" parent="90">
                    <mxGeometry x="472.5" y="234" width="50" height="20" as="geometry"/>
                </mxCell>
                <mxCell id="62" value="" style="endArrow=classic;html=1;strokeColor=#808080;" edge="1" parent="90">
                    <mxGeometry x="62" y="-2" width="50" height="50" as="geometry">
                        <mxPoint x="450" y="148" as="sourcePoint"/>
                        <mxPoint x="480" y="198" as="targetPoint"/>
                    </mxGeometry>
                </mxCell>
                <mxCell id="63" value="处理请求" style="edgeLabel;html=1;align=center;verticalAlign=middle;resizable=0;points=[];labelBackgroundColor=none;" vertex="1" connectable="0" parent="62">
                    <mxGeometry x="-0.0317" y="2" relative="1" as="geometry">
                        <mxPoint as="offset"/>
                    </mxGeometry>
                </mxCell>
                <mxCell id="64" value="Handler2" style="text;html=1;strokeColor=none;fillColor=none;align=center;verticalAlign=middle;whiteSpace=wrap;rounded=0;" vertex="1" parent="90">
                    <mxGeometry x="496" y="178" width="40" height="20" as="geometry"/>
                </mxCell>
                <mxCell id="65" value="" style="rounded=1;whiteSpace=wrap;html=1;fillColor=#cce5ff;strokeColor=none;" vertex="1" parent="90">
                    <mxGeometry x="175" y="311" width="400" height="171" as="geometry"/>
                </mxCell>
                <mxCell id="66" value="线程池" style="text;html=1;strokeColor=none;fillColor=none;align=center;verticalAlign=middle;whiteSpace=wrap;rounded=0;" vertex="1" parent="90">
                    <mxGeometry x="192.5" y="331" width="40" height="20" as="geometry"/>
                </mxCell>
                <mxCell id="69" value="" style="rounded=1;whiteSpace=wrap;html=1;labelBackgroundColor=none;fillColor=#fad7ac;strokeColor=none;" vertex="1" parent="90">
                    <mxGeometry x="235" y="357" width="139.5" height="108" as="geometry"/>
                </mxCell>
                <mxCell id="68" value="" style="rounded=1;whiteSpace=wrap;html=1;fillColor=#E6FFCC;strokeColor=none;" vertex="1" parent="90">
                    <mxGeometry x="256" y="390" width="105" height="60" as="geometry"/>
                </mxCell>
                <mxCell id="70" value="子线程1" style="text;html=1;strokeColor=none;fillColor=none;align=center;verticalAlign=middle;whiteSpace=wrap;rounded=0;labelBackgroundColor=none;" vertex="1" parent="90">
                    <mxGeometry x="279.75" y="360" width="50" height="20" as="geometry"/>
                </mxCell>
                <mxCell id="71" value="processor" style="text;html=1;strokeColor=none;fillColor=none;align=center;verticalAlign=middle;whiteSpace=wrap;rounded=0;labelBackgroundColor=none;" vertex="1" parent="90">
                    <mxGeometry x="284.75" y="390" width="40" height="20" as="geometry"/>
                </mxCell>
                <mxCell id="74" value="处理" style="rounded=0;whiteSpace=wrap;html=1;fillColor=#ffcc99;strokeColor=none;" vertex="1" parent="90">
                    <mxGeometry x="279.75" y="417" width="50" height="20" as="geometry"/>
                </mxCell>
                <mxCell id="75" value="client2" style="ellipse;whiteSpace=wrap;html=1;fillColor=#ffe6cc;strokeColor=none;" vertex="1" parent="90">
                    <mxGeometry x="3" y="187" width="90" height="60" as="geometry"/>
                </mxCell>
                <mxCell id="76" value="" style="endArrow=classic;html=1;strokeColor=#808080;" edge="1" parent="90">
                    <mxGeometry x="2" y="40" width="50" height="50" as="geometry">
                        <mxPoint x="98" y="190" as="sourcePoint"/>
                        <mxPoint x="294.5" y="150" as="targetPoint"/>
                    </mxGeometry>
                </mxCell>
                <mxCell id="77" value="请求" style="edgeLabel;html=1;align=center;verticalAlign=middle;resizable=0;points=[];labelBackgroundColor=none;" vertex="1" connectable="0" parent="76">
                    <mxGeometry x="-0.0317" y="2" relative="1" as="geometry">
                        <mxPoint as="offset"/>
                    </mxGeometry>
                </mxCell>
                <mxCell id="78" value="" style="rounded=1;whiteSpace=wrap;html=1;labelBackgroundColor=none;fillColor=#fad7ac;strokeColor=none;" vertex="1" parent="90">
                    <mxGeometry x="395" y="354" width="139.5" height="108" as="geometry"/>
                </mxCell>
                <mxCell id="79" value="" style="rounded=1;whiteSpace=wrap;html=1;fillColor=#E6FFCC;strokeColor=none;" vertex="1" parent="90">
                    <mxGeometry x="416" y="387" width="105" height="60" as="geometry"/>
                </mxCell>
                <mxCell id="80" value="子线程2" style="text;html=1;strokeColor=none;fillColor=none;align=center;verticalAlign=middle;whiteSpace=wrap;rounded=0;labelBackgroundColor=none;" vertex="1" parent="90">
                    <mxGeometry x="439.75" y="357" width="50" height="20" as="geometry"/>
                </mxCell>
                <mxCell id="81" value="processor" style="text;html=1;strokeColor=none;fillColor=none;align=center;verticalAlign=middle;whiteSpace=wrap;rounded=0;labelBackgroundColor=none;" vertex="1" parent="90">
                    <mxGeometry x="444.75" y="387" width="40" height="20" as="geometry"/>
                </mxCell>
                <mxCell id="82" value="处理" style="rounded=0;whiteSpace=wrap;html=1;fillColor=#ffcc99;strokeColor=none;" vertex="1" parent="90">
                    <mxGeometry x="439.75" y="418" width="50" height="20" as="geometry"/>
                </mxCell>
                <mxCell id="83" value="" style="endArrow=classic;startArrow=classic;html=1;strokeColor=#808080;" edge="1" parent="90">
                    <mxGeometry width="50" height="50" relative="1" as="geometry">
                        <mxPoint x="324.75" y="343" as="sourcePoint"/>
                        <mxPoint x="381.75" y="260" as="targetPoint"/>
                    </mxGeometry>
                </mxCell>
                <mxCell id="89" value="" style="endArrow=classic;startArrow=classic;html=1;strokeColor=#808080;" edge="1" parent="90">
                    <mxGeometry width="50" height="50" relative="1" as="geometry">
                        <mxPoint x="447" y="346" as="sourcePoint"/>
                        <mxPoint x="504" y="263" as="targetPoint"/>
                    </mxGeometry>
                </mxCell>
                <mxCell id="92" value="" style="rounded=1;whiteSpace=wrap;html=1;fillColor=#f5f5f5;fontColor=#333333;strokeColor=none;" vertex="1" parent="1">
                    <mxGeometry x="204" y="939" width="485" height="552" as="geometry"/>
                </mxCell>
                <mxCell id="93" value="client1" style="ellipse;whiteSpace=wrap;html=1;fillColor=#ffe6cc;strokeColor=none;" vertex="1" parent="1">
                    <mxGeometry x="50" y="1134" width="90" height="60" as="geometry"/>
                </mxCell>
                <mxCell id="94" value="server" style="text;html=1;strokeColor=none;fillColor=none;align=center;verticalAlign=middle;whiteSpace=wrap;rounded=0;" vertex="1" parent="1">
                    <mxGeometry x="399" y="952" width="40" height="20" as="geometry"/>
                </mxCell>
                <mxCell id="95" value="" style="rounded=1;whiteSpace=wrap;html=1;fillColor=#cce5ff;strokeColor=none;" vertex="1" parent="1">
                    <mxGeometry x="225" y="1070" width="196" height="240" as="geometry"/>
                </mxCell>
                <mxCell id="96" value="主进程" style="text;html=1;strokeColor=none;fillColor=none;align=center;verticalAlign=middle;whiteSpace=wrap;rounded=0;" vertex="1" parent="1">
                    <mxGeometry x="245" y="1090" width="40" height="20" as="geometry"/>
                </mxCell>
                <mxCell id="108" value="" style="endArrow=classic;html=1;strokeColor=#808080;" edge="1" parent="1">
                    <mxGeometry x="47" y="1006" width="50" height="50" as="geometry">
                        <mxPoint x="143" y="1156" as="sourcePoint"/>
                        <mxPoint x="232" y="1156" as="targetPoint"/>
                    </mxGeometry>
                </mxCell>
                <mxCell id="109" value="请求" style="edgeLabel;html=1;align=center;verticalAlign=middle;resizable=0;points=[];labelBackgroundColor=none;" vertex="1" connectable="0" parent="108">
                    <mxGeometry x="-0.0317" y="2" relative="1" as="geometry">
                        <mxPoint as="offset"/>
                    </mxGeometry>
                </mxCell>
                <mxCell id="127" value="client2" style="ellipse;whiteSpace=wrap;html=1;fillColor=#ffe6cc;strokeColor=none;" vertex="1" parent="1">
                    <mxGeometry x="50" y="1215" width="90" height="60" as="geometry"/>
                </mxCell>
                <mxCell id="128" value="" style="endArrow=classic;html=1;strokeColor=#808080;" edge="1" parent="1">
                    <mxGeometry x="41" y="1088" width="50" height="50" as="geometry">
                        <mxPoint x="146" y="1238" as="sourcePoint"/>
                        <mxPoint x="234" y="1238" as="targetPoint"/>
                    </mxGeometry>
                </mxCell>
                <mxCell id="129" value="请求" style="edgeLabel;html=1;align=center;verticalAlign=middle;resizable=0;points=[];labelBackgroundColor=none;" vertex="1" connectable="0" parent="128">
                    <mxGeometry x="-0.0317" y="2" relative="1" as="geometry">
                        <mxPoint as="offset"/>
                    </mxGeometry>
                </mxCell>
                <mxCell id="137" value="" style="group" vertex="1" connectable="0" parent="1">
                    <mxGeometry x="251" y="1112" width="150" height="187" as="geometry"/>
                </mxCell>
                <mxCell id="97" value="" style="rounded=1;whiteSpace=wrap;html=1;fillColor=#E6FFCC;strokeColor=none;" vertex="1" parent="137">
                    <mxGeometry x="19.25" y="127" width="105" height="60" as="geometry"/>
                </mxCell>
                <mxCell id="99" value="" style="rounded=1;whiteSpace=wrap;html=1;fillColor=#E6FFCC;strokeColor=none;" vertex="1" parent="137">
                    <mxGeometry y="20" width="150" height="64" as="geometry"/>
                </mxCell>
                <mxCell id="100" value="mainReactor" style="text;html=1;strokeColor=none;fillColor=none;align=center;verticalAlign=middle;whiteSpace=wrap;rounded=0;" vertex="1" parent="137">
                    <mxGeometry x="45" width="40" height="20" as="geometry"/>
                </mxCell>
                <mxCell id="101" value="Acceptor" style="text;html=1;strokeColor=none;fillColor=none;align=center;verticalAlign=middle;whiteSpace=wrap;rounded=0;" vertex="1" parent="137">
                    <mxGeometry x="6.75" y="107" width="40" height="20" as="geometry"/>
                </mxCell>
                <mxCell id="103" value="select" style="rounded=0;whiteSpace=wrap;html=1;fillColor=#ffcc99;strokeColor=none;" vertex="1" parent="137">
                    <mxGeometry x="20" y="45" width="50" height="20" as="geometry"/>
                </mxCell>
                <mxCell id="104" value="dispatch" style="rounded=0;whiteSpace=wrap;html=1;fillColor=#ffcc99;strokeColor=none;" vertex="1" parent="137">
                    <mxGeometry x="90" y="45" width="50" height="20" as="geometry"/>
                </mxCell>
                <mxCell id="105" value="accept" style="rounded=0;whiteSpace=wrap;html=1;fillColor=#ffcc99;strokeColor=none;" vertex="1" parent="137">
                    <mxGeometry x="46.75" y="147" width="50" height="20" as="geometry"/>
                </mxCell>
                <mxCell id="110" value="" style="endArrow=classic;html=1;strokeColor=#808080;" edge="1" parent="137">
                    <mxGeometry x="-232.25" y="-64" width="50" height="50" as="geometry">
                        <mxPoint x="78" y="87" as="sourcePoint"/>
                        <mxPoint x="78" y="123" as="targetPoint"/>
                    </mxGeometry>
                </mxCell>
                <mxCell id="111" value="建立连接" style="edgeLabel;html=1;align=center;verticalAlign=middle;resizable=0;points=[];labelBackgroundColor=none;" vertex="1" connectable="0" parent="110">
                    <mxGeometry x="-0.0317" y="2" relative="1" as="geometry">
                        <mxPoint as="offset"/>
                    </mxGeometry>
                </mxCell>
                <mxCell id="170" value="" style="group" vertex="1" connectable="0" parent="1">
                    <mxGeometry x="457" y="988" width="205.25" height="227" as="geometry"/>
                </mxCell>
                <mxCell id="120" value="" style="rounded=1;whiteSpace=wrap;html=1;fillColor=#cce5ff;strokeColor=none;" vertex="1" parent="170">
                    <mxGeometry width="205.25" height="227" as="geometry"/>
                </mxCell>
                <mxCell id="121" value="子进程" style="text;html=1;strokeColor=none;fillColor=none;align=center;verticalAlign=middle;whiteSpace=wrap;rounded=0;" vertex="1" parent="170">
                    <mxGeometry x="21" y="18" width="40" height="20" as="geometry"/>
                </mxCell>
                <mxCell id="139" value="" style="rounded=1;whiteSpace=wrap;html=1;fillColor=#E6FFCC;strokeColor=none;" vertex="1" parent="170">
                    <mxGeometry x="6" y="148" width="194" height="60" as="geometry"/>
                </mxCell>
                <mxCell id="140" value="" style="rounded=1;whiteSpace=wrap;html=1;fillColor=#E6FFCC;strokeColor=none;" vertex="1" parent="170">
                    <mxGeometry x="29" y="55" width="150" height="51" as="geometry"/>
                </mxCell>
                <mxCell id="141" value="subReactor" style="text;html=1;strokeColor=none;fillColor=none;align=center;verticalAlign=middle;whiteSpace=wrap;rounded=0;" vertex="1" parent="170">
                    <mxGeometry x="84" y="35" width="40" height="20" as="geometry"/>
                </mxCell>
                <mxCell id="142" value="Handler" style="text;html=1;strokeColor=none;fillColor=none;align=center;verticalAlign=middle;whiteSpace=wrap;rounded=0;" vertex="1" parent="170">
                    <mxGeometry x="26.75" y="126" width="40" height="20" as="geometry"/>
                </mxCell>
                <mxCell id="143" value="select" style="rounded=0;whiteSpace=wrap;html=1;fillColor=#ffcc99;strokeColor=none;" vertex="1" parent="170">
                    <mxGeometry x="40.75" y="72" width="50" height="20" as="geometry"/>
                </mxCell>
                <mxCell id="144" value="dispatch" style="rounded=0;whiteSpace=wrap;html=1;fillColor=#ffcc99;strokeColor=none;" vertex="1" parent="170">
                    <mxGeometry x="107" y="72" width="50" height="20" as="geometry"/>
                </mxCell>
                <mxCell id="145" value="read" style="rounded=0;whiteSpace=wrap;html=1;fillColor=#ffcc99;strokeColor=none;" vertex="1" parent="170">
                    <mxGeometry x="16" y="170" width="50" height="20" as="geometry"/>
                </mxCell>
                <mxCell id="146" value="" style="endArrow=classic;html=1;strokeColor=#808080;" edge="1" parent="170">
                    <mxGeometry x="-206.25" y="-37" width="50" height="50" as="geometry">
                        <mxPoint x="104" y="107" as="sourcePoint"/>
                        <mxPoint x="104" y="150" as="targetPoint"/>
                    </mxGeometry>
                </mxCell>
                <mxCell id="147" value="处理请求" style="edgeLabel;html=1;align=center;verticalAlign=middle;resizable=0;points=[];labelBackgroundColor=none;" vertex="1" connectable="0" parent="146">
                    <mxGeometry x="-0.0317" y="2" relative="1" as="geometry">
                        <mxPoint as="offset"/>
                    </mxGeometry>
                </mxCell>
                <mxCell id="167" value="处理" style="rounded=0;whiteSpace=wrap;html=1;fillColor=#ffcc99;strokeColor=none;" vertex="1" parent="170">
                    <mxGeometry x="77.63" y="170" width="50" height="20" as="geometry"/>
                </mxCell>
                <mxCell id="168" value="send" style="rounded=0;whiteSpace=wrap;html=1;fillColor=#ffcc99;strokeColor=none;" vertex="1" parent="170">
                    <mxGeometry x="141" y="170" width="50" height="20" as="geometry"/>
                </mxCell>
                <mxCell id="171" value="" style="group" vertex="1" connectable="0" parent="1">
                    <mxGeometry x="460" y="1242" width="205.25" height="227" as="geometry"/>
                </mxCell>
                <mxCell id="172" value="" style="rounded=1;whiteSpace=wrap;html=1;fillColor=#cce5ff;strokeColor=none;" vertex="1" parent="171">
                    <mxGeometry width="205.25" height="227" as="geometry"/>
                </mxCell>
                <mxCell id="173" value="子进程" style="text;html=1;strokeColor=none;fillColor=none;align=center;verticalAlign=middle;whiteSpace=wrap;rounded=0;" vertex="1" parent="171">
                    <mxGeometry x="21" y="18" width="40" height="20" as="geometry"/>
                </mxCell>
                <mxCell id="174" value="" style="rounded=1;whiteSpace=wrap;html=1;fillColor=#E6FFCC;strokeColor=none;" vertex="1" parent="171">
                    <mxGeometry x="6" y="148" width="194" height="60" as="geometry"/>
                </mxCell>
                <mxCell id="175" value="" style="rounded=1;whiteSpace=wrap;html=1;fillColor=#E6FFCC;strokeColor=none;" vertex="1" parent="171">
                    <mxGeometry x="29" y="55" width="150" height="51" as="geometry"/>
                </mxCell>
                <mxCell id="176" value="subReactor" style="text;html=1;strokeColor=none;fillColor=none;align=center;verticalAlign=middle;whiteSpace=wrap;rounded=0;" vertex="1" parent="171">
                    <mxGeometry x="84" y="35" width="40" height="20" as="geometry"/>
                </mxCell>
                <mxCell id="177" value="Handler" style="text;html=1;strokeColor=none;fillColor=none;align=center;verticalAlign=middle;whiteSpace=wrap;rounded=0;" vertex="1" parent="171">
                    <mxGeometry x="26.75" y="126" width="40" height="20" as="geometry"/>
                </mxCell>
                <mxCell id="178" value="select" style="rounded=0;whiteSpace=wrap;html=1;fillColor=#ffcc99;strokeColor=none;" vertex="1" parent="171">
                    <mxGeometry x="40.75" y="72" width="50" height="20" as="geometry"/>
                </mxCell>
                <mxCell id="179" value="dispatch" style="rounded=0;whiteSpace=wrap;html=1;fillColor=#ffcc99;strokeColor=none;" vertex="1" parent="171">
                    <mxGeometry x="107" y="72" width="50" height="20" as="geometry"/>
                </mxCell>
                <mxCell id="180" value="read" style="rounded=0;whiteSpace=wrap;html=1;fillColor=#ffcc99;strokeColor=none;" vertex="1" parent="171">
                    <mxGeometry x="16" y="170" width="50" height="20" as="geometry"/>
                </mxCell>
                <mxCell id="181" value="" style="endArrow=classic;html=1;strokeColor=#808080;" edge="1" parent="171">
                    <mxGeometry x="-206.25" y="-37" width="50" height="50" as="geometry">
                        <mxPoint x="104" y="107" as="sourcePoint"/>
                        <mxPoint x="104" y="150" as="targetPoint"/>
                    </mxGeometry>
                </mxCell>
                <mxCell id="182" value="处理请求" style="edgeLabel;html=1;align=center;verticalAlign=middle;resizable=0;points=[];labelBackgroundColor=none;" vertex="1" connectable="0" parent="181">
                    <mxGeometry x="-0.0317" y="2" relative="1" as="geometry">
                        <mxPoint as="offset"/>
                    </mxGeometry>
                </mxCell>
                <mxCell id="183" value="处理" style="rounded=0;whiteSpace=wrap;html=1;fillColor=#ffcc99;strokeColor=none;" vertex="1" parent="171">
                    <mxGeometry x="77.63" y="170" width="50" height="20" as="geometry"/>
                </mxCell>
                <mxCell id="184" value="send" style="rounded=0;whiteSpace=wrap;html=1;fillColor=#ffcc99;strokeColor=none;" vertex="1" parent="171">
                    <mxGeometry x="141" y="170" width="50" height="20" as="geometry"/>
                </mxCell>
                <mxCell id="185" value="" style="endArrow=classic;html=1;strokeColor=#808080;" edge="1" parent="1">
                    <mxGeometry width="50" height="50" relative="1" as="geometry">
                        <mxPoint x="407" y="1123" as="sourcePoint"/>
                        <mxPoint x="457" y="1073" as="targetPoint"/>
                    </mxGeometry>
                </mxCell>
                <mxCell id="186" value="" style="endArrow=classic;html=1;strokeColor=#808080;" edge="1" parent="1">
                    <mxGeometry width="50" height="50" relative="1" as="geometry">
                        <mxPoint x="399" y="1254" as="sourcePoint"/>
                        <mxPoint x="455" y="1304" as="targetPoint"/>
                    </mxGeometry>
                </mxCell>
            </root>
        </mxGraphModel>
    </diagram>
</mxfile>